<?xml version="1.0" encoding="utf-8"?>
<!-- Generator: Adobe Illustrator 23.0.2, SVG Export Plug-In . SVG Version: 6.00 Build 0)  -->
<svg version="1.1" id="logo" xmlns="http://www.w3.org/2000/svg" xmlns:xlink="http://www.w3.org/1999/xlink" x="0px" y="0px"
	 viewBox="0 0 800 256" style="enable-background:new 0 0 800 256;" xml:space="preserve">
<style type="text/css">
	.st0{fill:#2D4F6E;}
	.st1{fill-rule:evenodd;clip-rule:evenodd;fill:#4F8C81;}
	.st2{fill-rule:evenodd;clip-rule:evenodd;fill:#2D4F6E;}
</style>
<path id="v" class="st0" d="M648.72,255.48h-0.19c-29.41-0.04-49.21-5.88-54.24-39.14L575.79,93.94h22.28
	c43.61,0,47.11,9.71,51.65,44.39l9.65,73.81L733.51,94.3h66.97l-78.12,122.04C700.84,249.6,678.13,255.45,648.72,255.48"/>
<path id="m" class="st0" d="M470.82,255.48h58.1l33.5-161.54h-97.96l-36.44,86.86h-0.5l-1.46-86.86h-35.17
	c-32.95,0-58.4,4.46-67.79,49.82l-23.18,111.73H358l23.95-115.44h0.48l7.22,115.44h49.55l55.09-115.44h0.48L470.82,255.48z"/>
<path id="part2" class="st1" d="M97.23,251.15c-53.96-14.48-91.19-60.53-97.3-112.91c-0.09-2.41,0.16-4.73,2.47-6.09
	c1.07-0.6,2.28-0.91,3.48-0.76c2.11,0.24,3.46,1.73,4.83,3.4c27.25,40.03,64.57,58.4,99.96,67.05c5.65,1.38,12.68,2.61,15.1-2.98
	c2.42-5.62-0.37-7.26-5.33-10.36c-50.35-31.6-84.63-82.35-96.31-137.11c-0.68-2.72,0.08-5.51,2.5-6.86c1.28-0.75,2.78-0.99,4.29-0.6
	c1.74,0.45,2.9,1.84,3.75,3.31c25.5,38.56,62.77,70.28,103.09,91.74c26.21,13.96,55.59,24.38,85.58,26.19
	c11.89,0.7,27.94,0.37,35.92-8.04c-0.75,3.1-2.81,9.9-2.95,10.26C234.18,231.79,162.64,268.66,97.23,251.15"/>
<path id="part1" class="st2" d="M80.46,7.71c-0.52-2.28-0.31-4.28,1.43-6.03c0.97-0.9,2.43-1.43,3.77-1.51
	c1.04-0.07,2.03,0.16,2.95,0.76c0.89,0.53,1.64,1.34,2.26,2.27c19.68,30.54,57.46,63.85,101.63,80.89
	c21.81,8.41,41.56,6.35,36.42-23.02c-0.92-5.3-2.56-10.83-4.67-16.1c-0.47-0.99-0.39-2.15-0.09-3.18c0.37-1.52,1.38-2.79,2.66-3.46
	c1.28-0.77,2.79-0.99,4.29-0.61c1.28,0.37,2.41,1.14,3.1,2.1c19.85,24.55,30.18,55.12,29.53,86.48c-0.14,6.76-1.3,12.58-4.34,16.59
	c-9.61,12.82-33.11,7.45-46.53,3.34C146.33,125.94,94.67,69.52,80.46,7.71"/>
</svg>
